<?xml version="1.0" standalone="no"?>
<!DOCTYPE svg PUBLIC "-//W3C//DTD SVG 20010904//EN"
 "http://www.w3.org/TR/2001/REC-SVG-20010904/DTD/svg10.dtd">
<svg version="1.0" xmlns="http://www.w3.org/2000/svg"
 width="260.000000pt" height="260.000000pt" viewBox="0 0 260.000000 260.000000"
 preserveAspectRatio="xMidYMid meet">
<metadata>
Created by potrace 1.11, written by Peter Selinger 2001-2013
</metadata>
<g transform="translate(0.000000,260.000000) scale(0.100000,-0.100000)"
fill="#000000" stroke="none">
<path d="M0 1300 l0 -1300 1300 0 1300 0 0 1300 0 1300 -1300 0 -1300 0 0
-1300z m2185 968 c34 -19 76 -61 96 -98 11 -20 15 -120 17 -497 l3 -473 -451
0 -450 0 0 -450 0 -451 -477 3 c-427 3 -481 5 -509 20 -40 22 -92 81 -101 116
-5 15 -8 405 -8 867 0 772 1 843 17 871 23 41 82 92 116 100 15 3 32 7 37 9 6
2 386 3 845 2 757 -2 838 -4 865 -19z m115 -1318 l0 -50 -50 0 -50 0 0 -50 0
-50 -50 0 -50 0 0 -50 0 -50 -50 0 -50 0 0 -50 0 -50 -50 0 -50 0 0 -50 0 -50
-50 0 -50 0 0 -50 0 -50 -50 0 -50 0 0 -50 0 -50 -50 0 -50 0 0 350 0 350 350
0 350 0 0 -50z"/>
</g>
</svg>
